<svg width="29" height="30" viewBox="0 0 29 30" fill="none" xmlns="http://www.w3.org/2000/svg">
<path d="M28.368 18.6299C26.826 24.8249 21.1841 29.2325 14.5393 29.2325C7.86438 29.2325 2.27109 24.5641 0.792297 18.3435C2.57047 18.3435 4.23281 18.3516 5.00456 18.3516C5.36861 18.3516 5.43931 18.3579 5.46038 18.3564C6.04107 18.3278 6.76919 18.1362 7.25359 16.9582L9.09947 12.1296L13.1989 21.9998C13.5675 22.7866 14.1828 22.7308 14.5498 22.7308H14.5844C15.3005 22.7308 15.6119 22.4799 15.8842 21.9609L20.5147 12.2036L22.0943 16.601L22.1906 16.8139C22.5245 17.5466 22.7648 18.2702 23.5913 18.3648C23.7617 18.3843 25.7402 18.3497 28.4075 18.3497C28.4075 18.3497 28.4075 18.3668 28.368 18.6299Z" fill="#3DB5E6"/>
<path d="M28.8207 14.9811C28.8207 15.0549 28.8207 15.2403 28.8192 15.2403H28.8162H24.5589L22.0751 8.30196C21.8539 7.78596 21.5215 7.01241 20.5526 7.01241C19.9599 7.01241 19.4244 7.50193 19.1205 8.30978L14.6179 18.7392L10.2838 8.37304C9.85953 7.45236 9.56618 7.01936 8.71771 7.01936C8.14153 7.01936 7.7188 7.23161 7.25846 8.32228L4.68598 15.3433L0.41204 15.3388C0.409029 15.232 0.407532 15.1252 0.407532 15.0184C0.407532 7.21367 6.73494 0.906006 14.5397 0.906006C22.3444 0.906006 28.8207 7.17643 28.8207 14.9811Z" fill="#D8292F"/>
</svg>
